<svg width="473" height="51" viewBox="0 0 473 51" fill="none" xmlns="http://www.w3.org/2000/svg">
<path d="M78.3258 8.38956V5.72727H90.8691V8.38956H86.1934V21H83.0016V8.38956H78.3258ZM92.9348 21V5.72727H98.9604C100.114 5.72727 101.098 5.93359 101.914 6.34624C102.734 6.75391 103.358 7.3331 103.785 8.08381C104.218 8.82954 104.434 9.70703 104.434 10.7163C104.434 11.7305 104.215 12.603 103.778 13.3338C103.34 14.0597 102.706 14.6165 101.876 15.0043C101.051 15.392 100.052 15.5859 98.8784 15.5859H94.8439V12.9908H98.3564C98.9728 12.9908 99.4849 12.9062 99.8926 12.7372C100.3 12.5682 100.604 12.3146 100.802 11.9766C101.006 11.6385 101.108 11.2184 101.108 10.7163C101.108 10.2092 101.006 9.7816 100.802 9.43359C100.604 9.08558 100.298 8.82209 99.8851 8.64311C99.4775 8.45916 98.9629 8.36719 98.3414 8.36719H96.1639V21H92.9348ZM101.183 14.0497L104.979 21H101.414L97.7001 14.0497H101.183ZM120.863 5.17543H122.914C122.914 6.1946 122.777 7.06463 122.503 7.78551C122.235 8.50639 121.77 9.05824 121.109 9.44105C120.453 9.81889 119.54 10.0078 118.372 10.0078V8.33736C119.133 8.33736 119.689 8.21058 120.042 7.95703C120.395 7.70348 120.619 7.34055 120.714 6.86825C120.813 6.39595 120.863 5.83168 120.863 5.17543ZM116.15 5.72727H119.379V15.6456C119.379 16.7592 119.113 17.7337 118.581 18.5689C118.054 19.4041 117.316 20.0554 116.366 20.5227C115.416 20.9851 114.31 21.2163 113.047 21.2163C111.78 21.2163 110.671 20.9851 109.721 20.5227C108.772 20.0554 108.034 19.4041 107.507 18.5689C106.98 17.7337 106.716 16.7592 106.716 15.6456V5.72727H109.945V15.3697C109.945 15.9513 110.072 16.4684 110.325 16.9208C110.584 17.3732 110.947 17.7287 111.414 17.9872C111.882 18.2457 112.426 18.375 113.047 18.375C113.674 18.375 114.218 18.2457 114.681 17.9872C115.148 17.7287 115.508 17.3732 115.762 16.9208C116.02 16.4684 116.15 15.9513 116.15 15.3697V5.72727ZM137.737 4.98153H139.78C139.78 6.43324 139.465 7.5593 138.833 8.35973C138.202 9.16016 137.203 9.56037 135.835 9.56037V7.91974C136.561 7.91974 137.058 7.66122 137.327 7.14418C137.6 6.62713 137.737 5.90625 137.737 4.98153ZM138.326 13.3636C138.326 15.0291 138.01 16.446 137.379 17.6143C136.753 18.7827 135.897 19.6751 134.814 20.2915C133.735 20.9031 132.522 21.2088 131.174 21.2088C129.817 21.2088 128.599 20.9006 127.52 20.2841C126.441 19.6676 125.589 18.7752 124.962 17.6069C124.336 16.4386 124.023 15.0241 124.023 13.3636C124.023 11.6982 124.336 10.2812 124.962 9.11293C125.589 7.9446 126.441 7.05469 127.52 6.44318C128.599 5.8267 129.817 5.51847 131.174 5.51847C132.522 5.51847 133.735 5.8267 134.814 6.44318C135.897 7.05469 136.753 7.9446 137.379 9.11293C138.01 10.2812 138.326 11.6982 138.326 13.3636ZM135.052 13.3636C135.052 12.2848 134.891 11.375 134.568 10.6342C134.249 9.89347 133.799 9.33168 133.218 8.94886C132.636 8.56605 131.955 8.37465 131.174 8.37465C130.394 8.37465 129.713 8.56605 129.131 8.94886C128.549 9.33168 128.097 9.89347 127.774 10.6342C127.456 11.375 127.297 12.2848 127.297 13.3636C127.297 14.4425 127.456 15.3523 127.774 16.093C128.097 16.8338 128.549 17.3956 129.131 17.7784C129.713 18.1612 130.394 18.3526 131.174 18.3526C131.955 18.3526 132.636 18.1612 133.218 17.7784C133.799 17.3956 134.249 16.8338 134.568 16.093C134.891 15.3523 135.052 14.4425 135.052 13.3636ZM130.071 4.25071L127.796 0.857599H130.727L132.315 4.25071H130.071ZM154.149 5.72727V21H151.36L144.715 11.3874H144.603V21H141.374V5.72727H144.208L150.8 15.3324H150.935V5.72727H154.149ZM166.944 10.6641C166.839 10.3011 166.693 9.98047 166.504 9.70206C166.315 9.41868 166.084 9.18004 165.81 8.98615C165.542 8.78729 165.234 8.63565 164.886 8.53125C164.543 8.42685 164.162 8.37465 163.745 8.37465C162.964 8.37465 162.278 8.56854 161.686 8.95632C161.1 9.3441 160.642 9.90838 160.314 10.6491C159.986 11.3849 159.822 12.2848 159.822 13.3487C159.822 14.4126 159.984 15.3175 160.307 16.0632C160.63 16.8089 161.087 17.3782 161.679 17.771C162.271 18.1587 162.969 18.3526 163.774 18.3526C164.505 18.3526 165.129 18.2234 165.646 17.9648C166.168 17.7013 166.566 17.331 166.839 16.8537C167.118 16.3764 167.257 15.8121 167.257 15.1609L167.913 15.2578H163.976V12.8267H170.367V14.7507C170.367 16.093 170.083 17.2464 169.517 18.2109C168.95 19.1705 168.169 19.9112 167.175 20.4332C166.181 20.9503 165.042 21.2088 163.759 21.2088C162.328 21.2088 161.07 20.8931 159.986 20.2617C158.902 19.6254 158.057 18.723 157.451 17.5547C156.849 16.3814 156.548 14.9893 156.548 13.3786C156.548 12.1406 156.727 11.0369 157.085 10.0675C157.448 9.09304 157.955 8.26776 158.606 7.59162C159.258 6.91548 160.016 6.40092 160.881 6.04794C161.746 5.69496 162.683 5.51847 163.692 5.51847C164.557 5.51847 165.363 5.64524 166.109 5.89879C166.854 6.14737 167.516 6.50035 168.092 6.95774C168.674 7.41513 169.149 7.95952 169.517 8.59091C169.884 9.21733 170.121 9.90838 170.225 10.6641H166.944ZM183.067 21H179.092V18.2333H182.932C183.887 18.2333 184.69 18.0643 185.341 17.7262C185.997 17.3832 186.49 16.8537 186.818 16.1378C187.151 15.4169 187.317 14.4872 187.317 13.3487C187.317 12.2202 187.151 11.2979 186.818 10.582C186.49 9.86612 186 9.33913 185.349 9.00106C184.697 8.663 183.894 8.49396 182.94 8.49396H179.025V5.72727H183.111C184.648 5.72727 185.97 6.03303 187.079 6.64453C188.187 7.25106 189.04 8.12358 189.637 9.26207C190.238 10.4006 190.539 11.7628 190.539 13.3487C190.539 14.9396 190.238 16.3068 189.637 17.4503C189.04 18.5937 188.182 19.4712 187.064 20.0827C185.95 20.6942 184.618 21 183.067 21ZM180.882 5.72727V21H177.653V5.72727H180.882ZM175.535 13.8857V12.0064H182.97V13.8857H175.535ZM195.563 21H192.103L197.376 5.72727H201.537L206.802 21H203.341L199.516 9.21733H199.396L195.563 21ZM195.347 14.9968H203.52V17.5174H195.347V14.9968ZM199.456 25.288C198.984 25.288 198.579 25.1314 198.241 24.8182C197.903 24.505 197.733 24.1271 197.733 23.6847C197.733 23.2422 197.903 22.8643 198.241 22.5511C198.579 22.2379 198.984 22.0813 199.456 22.0813C199.928 22.0813 200.331 22.2379 200.664 22.5511C201.002 22.8643 201.171 23.2422 201.171 23.6847C201.171 24.1271 201.002 24.505 200.664 24.8182C200.331 25.1314 199.928 25.288 199.456 25.288ZM211.869 5.72727V21H208.64V5.72727H211.869ZM219.386 21V5.72727H222.615V12.0288H229.17V5.72727H232.392V21H229.17V14.6911H222.615V21H219.386ZM249.089 13.3636C249.089 15.0291 248.773 16.446 248.142 17.6143C247.515 18.7827 246.66 19.6751 245.576 20.2915C244.498 20.9031 243.284 21.2088 241.937 21.2088C240.58 21.2088 239.362 20.9006 238.283 20.2841C237.204 19.6676 236.352 18.7752 235.725 17.6069C235.099 16.4386 234.786 15.0241 234.786 13.3636C234.786 11.6982 235.099 10.2812 235.725 9.11293C236.352 7.9446 237.204 7.05469 238.283 6.44318C239.362 5.8267 240.58 5.51847 241.937 5.51847C243.284 5.51847 244.498 5.8267 245.576 6.44318C246.66 7.05469 247.515 7.9446 248.142 9.11293C248.773 10.2812 249.089 11.6982 249.089 13.3636ZM245.815 13.3636C245.815 12.2848 245.653 11.375 245.33 10.6342C245.012 9.89347 244.562 9.33168 243.98 8.94886C243.399 8.56605 242.718 8.37465 241.937 8.37465C241.157 8.37465 240.475 8.56605 239.894 8.94886C239.312 9.33168 238.86 9.89347 238.537 10.6342C238.218 11.375 238.059 12.2848 238.059 13.3636C238.059 14.4425 238.218 15.3523 238.537 16.093C238.86 16.8338 239.312 17.3956 239.894 17.7784C240.475 18.1612 241.157 18.3526 241.937 18.3526C242.718 18.3526 243.399 18.1612 243.98 17.7784C244.562 17.3956 245.012 16.8338 245.33 16.093C245.653 15.3523 245.815 14.4425 245.815 13.3636ZM241.937 25.288C241.465 25.288 241.06 25.1314 240.722 24.8182C240.384 24.505 240.214 24.1271 240.214 23.6847C240.214 23.2422 240.384 22.8643 240.722 22.5511C241.06 22.2379 241.465 22.0813 241.937 22.0813C242.409 22.0813 242.812 22.2379 243.145 22.5511C243.483 22.8643 243.652 23.2422 243.652 23.6847C243.652 24.1271 243.483 24.505 243.145 24.8182C242.812 25.1314 242.409 25.288 241.937 25.288ZM264.956 11.0742H261.69C261.63 10.6516 261.508 10.2763 261.324 9.94815C261.141 9.61506 260.904 9.33168 260.616 9.09801C260.328 8.86435 259.995 8.68537 259.617 8.56108C259.244 8.43679 258.839 8.37465 258.401 8.37465C257.611 8.37465 256.922 8.57102 256.335 8.96378C255.749 9.35156 255.294 9.91832 254.971 10.6641C254.648 11.4048 254.486 12.3047 254.486 13.3636C254.486 14.4524 254.648 15.3672 254.971 16.108C255.299 16.8487 255.756 17.408 256.343 17.7859C256.93 18.1637 257.608 18.3526 258.379 18.3526C258.811 18.3526 259.212 18.2955 259.579 18.1811C259.952 18.0668 260.283 17.9002 260.571 17.6815C260.86 17.4577 261.098 17.1868 261.287 16.8686C261.481 16.5504 261.615 16.1875 261.69 15.7798L264.956 15.7947C264.872 16.4957 264.66 17.1719 264.322 17.8232C263.989 18.4695 263.539 19.0487 262.973 19.5607C262.411 20.0678 261.74 20.4705 260.959 20.7688C260.184 21.0621 259.306 21.2088 258.327 21.2088C256.964 21.2088 255.746 20.9006 254.672 20.2841C253.604 19.6676 252.758 18.7752 252.137 17.6069C251.521 16.4386 251.212 15.0241 251.212 13.3636C251.212 11.6982 251.525 10.2812 252.152 9.11293C252.778 7.9446 253.628 7.05469 254.702 6.44318C255.776 5.8267 256.984 5.51847 258.327 5.51847C259.212 5.51847 260.032 5.64276 260.788 5.89133C261.548 6.13991 262.222 6.50284 262.809 6.98011C263.395 7.45241 263.872 8.0316 264.24 8.71768C264.613 9.40376 264.852 10.1893 264.956 11.0742ZM272.132 21V5.72727H278.247C279.371 5.72727 280.308 5.89382 281.059 6.22692C281.809 6.56001 282.374 7.02237 282.751 7.61399C283.129 8.20064 283.318 8.87678 283.318 9.6424C283.318 10.239 283.199 10.7635 282.96 11.2159C282.722 11.6634 282.393 12.0312 281.976 12.3196C281.563 12.603 281.091 12.8043 280.559 12.9237V13.0728C281.141 13.0977 281.685 13.2617 282.192 13.565C282.704 13.8683 283.119 14.2933 283.438 14.8402C283.756 15.3821 283.915 16.0284 283.915 16.7791C283.915 17.5895 283.713 18.3129 283.311 18.9492C282.913 19.5806 282.324 20.0803 281.543 20.4482C280.763 20.8161 279.801 21 278.657 21H272.132ZM275.361 18.3601H277.994C278.893 18.3601 279.55 18.1886 279.962 17.8455C280.375 17.4975 280.581 17.0352 280.581 16.4585C280.581 16.0359 280.479 15.663 280.276 15.3398C280.072 15.0167 279.781 14.7631 279.403 14.5792C279.03 14.3952 278.585 14.3033 278.068 14.3033H275.361V18.3601ZM275.361 12.1183H277.755C278.197 12.1183 278.59 12.0412 278.933 11.8871C279.281 11.728 279.555 11.5043 279.754 11.2159C279.957 10.9276 280.059 10.582 280.059 10.1793C280.059 9.62749 279.863 9.18253 279.47 8.84446C279.082 8.50639 278.531 8.33736 277.815 8.33736H275.361V12.1183ZM288.648 21H285.188L290.46 5.72727H294.622L299.887 21H296.426L292.601 9.21733H292.481L288.648 21ZM288.432 14.9968H296.605V17.5174H288.432V14.9968ZM291.4 4.25071L292.981 0.857599H295.919L293.645 4.25071H291.4ZM314.483 11.0742H311.216C311.157 10.6516 311.035 10.2763 310.851 9.94815C310.667 9.61506 310.431 9.33168 310.142 9.09801C309.854 8.86435 309.521 8.68537 309.143 8.56108C308.77 8.43679 308.365 8.37465 307.928 8.37465C307.137 8.37465 306.449 8.57102 305.862 8.96378C305.275 9.35156 304.82 9.91832 304.497 10.6641C304.174 11.4048 304.012 12.3047 304.012 13.3636C304.012 14.4524 304.174 15.3672 304.497 16.108C304.825 16.8487 305.283 17.408 305.869 17.7859C306.456 18.1637 307.135 18.3526 307.905 18.3526C308.338 18.3526 308.738 18.2955 309.106 18.1811C309.479 18.0668 309.809 17.9002 310.098 17.6815C310.386 17.4577 310.625 17.1868 310.814 16.8686C311.007 16.5504 311.142 16.1875 311.216 15.7798L314.483 15.7947C314.398 16.4957 314.187 17.1719 313.849 17.8232C313.516 18.4695 313.066 19.0487 312.499 19.5607C311.937 20.0678 311.266 20.4705 310.485 20.7688C309.71 21.0621 308.832 21.2088 307.853 21.2088C306.491 21.2088 305.273 20.9006 304.199 20.2841C303.13 19.6676 302.285 18.7752 301.663 17.6069C301.047 16.4386 300.739 15.0241 300.739 13.3636C300.739 11.6982 301.052 10.2812 301.678 9.11293C302.305 7.9446 303.155 7.05469 304.229 6.44318C305.303 5.8267 306.511 5.51847 307.853 5.51847C308.738 5.51847 309.558 5.64276 310.314 5.89133C311.075 6.13991 311.748 6.50284 312.335 6.98011C312.922 7.45241 313.399 8.0316 313.767 8.71768C314.14 9.40376 314.378 10.1893 314.483 11.0742ZM316.798 21V5.72727H320.027V12.0288H326.582V5.72727H329.804V21H326.582V14.6911H320.027V21H316.798ZM337.326 21V5.72727H340.555V12.4613H340.757L346.253 5.72727H350.123L344.456 12.5657L350.19 21H346.328L342.144 14.7209L340.555 16.6598V21H337.326ZM351.805 21V5.72727H355.034V12.0288H361.589V5.72727H364.811V21H361.589V14.6911H355.034V21H351.805ZM381.508 13.3636C381.508 15.0291 381.192 16.446 380.561 17.6143C379.934 18.7827 379.079 19.6751 377.995 20.2915C376.916 20.9031 375.703 21.2088 374.356 21.2088C372.999 21.2088 371.781 20.9006 370.702 20.2841C369.623 19.6676 368.771 18.7752 368.144 17.6069C367.518 16.4386 367.204 15.0241 367.204 13.3636C367.204 11.6982 367.518 10.2812 368.144 9.11293C368.771 7.9446 369.623 7.05469 370.702 6.44318C371.781 5.8267 372.999 5.51847 374.356 5.51847C375.703 5.51847 376.916 5.8267 377.995 6.44318C379.079 7.05469 379.934 7.9446 380.561 9.11293C381.192 10.2812 381.508 11.6982 381.508 13.3636ZM378.234 13.3636C378.234 12.2848 378.072 11.375 377.749 10.6342C377.431 9.89347 376.981 9.33168 376.399 8.94886C375.818 8.56605 375.137 8.37465 374.356 8.37465C373.576 8.37465 372.894 8.56605 372.313 8.94886C371.731 9.33168 371.279 9.89347 370.956 10.6342C370.637 11.375 370.478 12.2848 370.478 13.3636C370.478 14.4425 370.637 15.3523 370.956 16.093C371.279 16.8338 371.731 17.3956 372.313 17.7784C372.894 18.1612 373.576 18.3526 374.356 18.3526C375.137 18.3526 375.818 18.1612 376.399 17.7784C376.981 17.3956 377.431 16.8338 377.749 16.093C378.072 15.3523 378.234 14.4425 378.234 13.3636ZM385.671 21H382.211L387.483 5.72727H391.644L396.909 21H393.449L389.623 9.21733H389.504L385.671 21ZM385.455 14.9968H393.628V17.5174H385.455V14.9968ZM7.72488 46H3.75009V43.2333H7.59064C8.54519 43.2333 9.3481 43.0643 9.99938 42.7262C10.6556 42.3832 11.1478 41.8537 11.4759 41.1378C11.809 40.4169 11.9756 39.4872 11.9756 38.3487C11.9756 37.2202 11.809 36.2979 11.4759 35.582C11.1478 34.8661 10.6581 34.3391 10.0068 34.0011C9.35556 33.663 8.55265 33.494 7.5981 33.494H3.68297V30.7273H7.76962C9.30584 30.7273 10.6283 31.033 11.7369 31.6445C12.8456 32.2511 13.6982 33.1236 14.2948 34.2621C14.8964 35.4006 15.1972 36.7628 15.1972 38.3487C15.1972 39.9396 14.8964 41.3068 14.2948 42.4503C13.6982 43.5937 12.8406 44.4712 11.722 45.0827C10.6084 45.6942 9.27601 46 7.72488 46ZM5.53986 30.7273V46H2.31081V30.7273H5.53986ZM0.192915 38.8857V37.0064H7.62793V38.8857H0.192915ZM20.2216 46H16.7614L22.0337 30.7273H26.195L31.4599 46H27.9996L24.174 34.2173H24.0547L20.2216 46ZM20.0053 39.9968H28.1786V42.5174H20.0053V39.9968ZM24.1143 50.288C23.642 50.288 23.2369 50.1314 22.8988 49.8182C22.5607 49.505 22.3917 49.1271 22.3917 48.6847C22.3917 48.2422 22.5607 47.8643 22.8988 47.5511C23.2369 47.2379 23.642 47.0813 24.1143 47.0813C24.5866 47.0813 24.9893 47.2379 25.3224 47.5511C25.6605 47.8643 25.8295 48.2422 25.8295 48.6847C25.8295 49.1271 25.6605 49.505 25.3224 49.8182C24.9893 50.1314 24.5866 50.288 24.1143 50.288ZM36.5272 30.7273V46H33.2981V30.7273H36.5272ZM44.0442 46V30.7273H47.2733V37.0288H53.8283V30.7273H57.0499V46H53.8283V39.6911H47.2733V46H44.0442ZM73.747 38.3636C73.747 40.0291 73.4313 41.446 72.7999 42.6143C72.1735 43.7827 71.3184 44.6751 70.2346 45.2915C69.1557 45.9031 67.9426 46.2088 66.5953 46.2088C65.2381 46.2088 64.0201 45.9006 62.9412 45.2841C61.8624 44.6676 61.0098 43.7752 60.3833 42.6069C59.7569 41.4386 59.4437 40.0241 59.4437 38.3636C59.4437 36.6982 59.7569 35.2812 60.3833 34.1129C61.0098 32.9446 61.8624 32.0547 62.9412 31.4432C64.0201 30.8267 65.2381 30.5185 66.5953 30.5185C67.9426 30.5185 69.1557 30.8267 70.2346 31.4432C71.3184 32.0547 72.1735 32.9446 72.7999 34.1129C73.4313 35.2812 73.747 36.6982 73.747 38.3636ZM70.4732 38.3636C70.4732 37.2848 70.3116 36.375 69.9885 35.6342C69.6703 34.8935 69.2203 34.3317 68.6387 33.9489C68.057 33.5661 67.3759 33.3746 66.5953 33.3746C65.8148 33.3746 65.1337 33.5661 64.552 33.9489C63.9703 34.3317 63.5179 34.8935 63.1948 35.6342C62.8766 36.375 62.7175 37.2848 62.7175 38.3636C62.7175 39.4425 62.8766 40.3523 63.1948 41.093C63.5179 41.8338 63.9703 42.3956 64.552 42.7784C65.1337 43.1612 65.8148 43.3526 66.5953 43.3526C67.3759 43.3526 68.057 43.1612 68.6387 42.7784C69.2203 42.3956 69.6703 41.8338 69.9885 41.093C70.3116 40.3523 70.4732 39.4425 70.4732 38.3636ZM66.5953 50.288C66.123 50.288 65.7179 50.1314 65.3798 49.8182C65.0417 49.505 64.8727 49.1271 64.8727 48.6847C64.8727 48.2422 65.0417 47.8643 65.3798 47.5511C65.7179 47.2379 66.123 47.0813 66.5953 47.0813C67.0676 47.0813 67.4703 47.2379 67.8034 47.5511C68.1415 47.8643 68.3105 48.2422 68.3105 48.6847C68.3105 49.1271 68.1415 49.505 67.8034 49.8182C67.4703 50.1314 67.0676 50.288 66.5953 50.288ZM89.6144 36.0742H86.3481C86.2884 35.6516 86.1666 35.2763 85.9827 34.9482C85.7987 34.6151 85.5626 34.3317 85.2742 34.098C84.9859 33.8643 84.6528 33.6854 84.2749 33.5611C83.9021 33.4368 83.4969 33.3746 83.0594 33.3746C82.2689 33.3746 81.5803 33.571 80.9937 33.9638C80.407 34.3516 79.9521 34.9183 79.629 35.6641C79.3058 36.4048 79.1443 37.3047 79.1443 38.3636C79.1443 39.4524 79.3058 40.3672 79.629 41.108C79.9571 41.8487 80.4145 42.408 81.0012 42.7859C81.5878 43.1637 82.2664 43.3526 83.037 43.3526C83.4695 43.3526 83.8698 43.2955 84.2377 43.1811C84.6105 43.0668 84.9411 42.9002 85.2295 42.6815C85.5178 42.4577 85.7565 42.1868 85.9454 41.8686C86.1393 41.5504 86.2735 41.1875 86.3481 40.7798L89.6144 40.7947C89.5299 41.4957 89.3186 42.1719 88.9806 42.8232C88.6475 43.4695 88.1975 44.0487 87.6308 44.5607C87.069 45.0678 86.3978 45.4705 85.6173 45.7688C84.8417 46.0621 83.9642 46.2088 82.9848 46.2088C81.6226 46.2088 80.4046 45.9006 79.3307 45.2841C78.2618 44.6676 77.4166 43.7752 76.7952 42.6069C76.1787 41.4386 75.8705 40.0241 75.8705 38.3636C75.8705 36.6982 76.1837 35.2812 76.8101 34.1129C77.4365 32.9446 78.2867 32.0547 79.3605 31.4432C80.4344 30.8267 81.6425 30.5185 82.9848 30.5185C83.8698 30.5185 84.6901 30.6428 85.4458 30.8913C86.2064 31.1399 86.8801 31.5028 87.4667 31.9801C88.0534 32.4524 88.5306 33.0316 88.8985 33.7177C89.2714 34.4038 89.51 35.1893 89.6144 36.0742ZM102.555 40.6903H105.299L106.679 42.4652L108.036 44.0462L110.594 47.2528H107.581L105.821 45.0902L104.919 43.8075L102.555 40.6903ZM110.825 38.3636C110.825 40.0291 110.509 41.446 109.878 42.6143C109.252 43.7827 108.396 44.6751 107.313 45.2915C106.234 45.9031 105.021 46.2088 103.673 46.2088C102.316 46.2088 101.098 45.9006 100.019 45.2841C98.9405 44.6676 98.0879 43.7752 97.4615 42.6069C96.835 41.4386 96.5218 40.0241 96.5218 38.3636C96.5218 36.6982 96.835 35.2812 97.4615 34.1129C98.0879 32.9446 98.9405 32.0547 100.019 31.4432C101.098 30.8267 102.316 30.5185 103.673 30.5185C105.021 30.5185 106.234 30.8267 107.313 31.4432C108.396 32.0547 109.252 32.9446 109.878 34.1129C110.509 35.2812 110.825 36.6982 110.825 38.3636ZM107.551 38.3636C107.551 37.2848 107.39 36.375 107.067 35.6342C106.748 34.8935 106.298 34.3317 105.717 33.9489C105.135 33.5661 104.454 33.3746 103.673 33.3746C102.893 33.3746 102.212 33.5661 101.63 33.9489C101.048 34.3317 100.596 34.8935 100.273 35.6342C99.9547 36.375 99.7956 37.2848 99.7956 38.3636C99.7956 39.4425 99.9547 40.3523 100.273 41.093C100.596 41.8338 101.048 42.3956 101.63 42.7784C102.212 43.1612 102.893 43.3526 103.673 43.3526C104.454 43.3526 105.135 43.1612 105.717 42.7784C106.298 42.3956 106.748 41.8338 107.067 41.093C107.39 40.3523 107.551 39.4425 107.551 38.3636ZM122.651 30.7273H125.88V40.6456C125.88 41.7592 125.614 42.7337 125.082 43.5689C124.555 44.4041 123.816 45.0554 122.867 45.5227C121.917 45.9851 120.811 46.2163 119.548 46.2163C118.281 46.2163 117.172 45.9851 116.222 45.5227C115.273 45.0554 114.535 44.4041 114.008 43.5689C113.481 42.7337 113.217 41.7592 113.217 40.6456V30.7273H116.446V40.3697C116.446 40.9513 116.573 41.4684 116.826 41.9208C117.085 42.3732 117.448 42.7287 117.915 42.9872C118.383 43.2457 118.927 43.375 119.548 43.375C120.175 43.375 120.719 43.2457 121.182 42.9872C121.649 42.7287 122.009 42.3732 122.263 41.9208C122.521 41.4684 122.651 40.9513 122.651 40.3697V30.7273ZM142.571 38.3636C142.571 40.0291 142.256 41.446 141.624 42.6143C140.998 43.7827 140.143 44.6751 139.059 45.2915C137.98 45.9031 136.767 46.2088 135.42 46.2088C134.062 46.2088 132.844 45.9006 131.765 45.2841C130.687 44.6676 129.834 43.7752 129.208 42.6069C128.581 41.4386 128.268 40.0241 128.268 38.3636C128.268 36.6982 128.581 35.2812 129.208 34.1129C129.834 32.9446 130.687 32.0547 131.765 31.4432C132.844 30.8267 134.062 30.5185 135.42 30.5185C136.767 30.5185 137.98 30.8267 139.059 31.4432C140.143 32.0547 140.998 32.9446 141.624 34.1129C142.256 35.2812 142.571 36.6982 142.571 38.3636ZM139.297 38.3636C139.297 37.2848 139.136 36.375 138.813 35.6342C138.494 34.8935 138.045 34.3317 137.463 33.9489C136.881 33.5661 136.2 33.3746 135.42 33.3746C134.639 33.3746 133.958 33.5661 133.376 33.9489C132.795 34.3317 132.342 34.8935 132.019 35.6342C131.701 36.375 131.542 37.2848 131.542 38.3636C131.542 39.4425 131.701 40.3523 132.019 41.093C132.342 41.8338 132.795 42.3956 133.376 42.7784C133.958 43.1612 134.639 43.3526 135.42 43.3526C136.2 43.3526 136.881 43.1612 137.463 42.7784C138.045 42.3956 138.494 41.8338 138.813 41.093C139.136 40.3523 139.297 39.4425 139.297 38.3636ZM131.534 29.4744L134.54 27.1552H136.255L139.275 29.4744H136.986L135.412 28.2216L133.816 29.4744H131.534ZM138.492 28.1619L140.237 25.3654H142.698L140.289 28.1619H138.492ZM158.439 36.0742H155.172C155.113 35.6516 154.991 35.2763 154.807 34.9482C154.623 34.6151 154.387 34.3317 154.098 34.098C153.81 33.8643 153.477 33.6854 153.099 33.5611C152.726 33.4368 152.321 33.3746 151.884 33.3746C151.093 33.3746 150.405 33.571 149.818 33.9638C149.231 34.3516 148.776 34.9183 148.453 35.6641C148.13 36.4048 147.968 37.3047 147.968 38.3636C147.968 39.4524 148.13 40.3672 148.453 41.108C148.781 41.8487 149.239 42.408 149.825 42.7859C150.412 43.1637 151.091 43.3526 151.861 43.3526C152.294 43.3526 152.694 43.2955 153.062 43.1811C153.435 43.0668 153.765 42.9002 154.054 42.6815C154.342 42.4577 154.581 42.1868 154.77 41.8686C154.964 41.5504 155.098 41.1875 155.172 40.7798L158.439 40.7947C158.354 41.4957 158.143 42.1719 157.805 42.8232C157.472 43.4695 157.022 44.0487 156.455 44.5607C155.893 45.0678 155.222 45.4705 154.441 45.7688C153.666 46.0621 152.788 46.2088 151.809 46.2088C150.447 46.2088 149.229 45.9006 148.155 45.2841C147.086 44.6676 146.241 43.7752 145.619 42.6069C145.003 41.4386 144.695 40.0241 144.695 38.3636C144.695 36.6982 145.008 35.2812 145.634 34.1129C146.261 32.9446 147.111 32.0547 148.185 31.4432C149.259 30.8267 150.467 30.5185 151.809 30.5185C152.694 30.5185 153.514 30.6428 154.27 30.8913C155.031 31.1399 155.704 31.5028 156.291 31.9801C156.878 32.4524 157.355 33.0316 157.723 33.7177C158.096 34.4038 158.334 35.1893 158.439 36.0742ZM175.742 35.6641C175.637 35.3011 175.491 34.9805 175.302 34.7021C175.113 34.4187 174.882 34.18 174.608 33.9862C174.34 33.7873 174.031 33.6357 173.683 33.5312C173.34 33.4268 172.96 33.3746 172.542 33.3746C171.762 33.3746 171.076 33.5685 170.484 33.9563C169.898 34.3441 169.44 34.9084 169.112 35.6491C168.784 36.3849 168.62 37.2848 168.62 38.3487C168.62 39.4126 168.781 40.3175 169.105 41.0632C169.428 41.8089 169.885 42.3782 170.477 42.771C171.068 43.1587 171.767 43.3526 172.572 43.3526C173.303 43.3526 173.927 43.2234 174.444 42.9648C174.966 42.7013 175.364 42.331 175.637 41.8537C175.916 41.3764 176.055 40.8121 176.055 40.1609L176.711 40.2578H172.774V37.8267H179.165V39.7507C179.165 41.093 178.881 42.2464 178.314 43.2109C177.748 44.1705 176.967 44.9112 175.973 45.4332C174.979 45.9503 173.84 46.2088 172.557 46.2088C171.126 46.2088 169.868 45.8931 168.784 45.2617C167.7 44.6254 166.855 43.723 166.248 42.5547C165.647 41.3814 165.346 39.9893 165.346 38.3786C165.346 37.1406 165.525 36.0369 165.883 35.0675C166.246 34.093 166.753 33.2678 167.404 32.5916C168.056 31.9155 168.814 31.4009 169.679 31.0479C170.544 30.695 171.481 30.5185 172.49 30.5185C173.355 30.5185 174.161 30.6452 174.906 30.8988C175.652 31.1474 176.313 31.5004 176.89 31.9577C177.472 32.4151 177.947 32.9595 178.314 33.5909C178.682 34.2173 178.919 34.9084 179.023 35.6641H175.742ZM184.819 30.7273V46H181.59V30.7273H184.819ZM190.108 46H186.648L191.92 30.7273H196.082L201.347 46H197.886L194.061 34.2173H193.941L190.108 46ZM189.892 39.9968H198.065V42.5174H189.892V39.9968ZM207.464 33.3896V30.7273H220.007V33.3896H215.331V46H212.139V33.3896H207.464ZM222.073 46V30.7273H225.302V37.0288H231.857V30.7273H235.078V46H231.857V39.6911H225.302V46H222.073ZM240.373 46H236.913L242.185 30.7273H246.346L251.611 46H248.151L244.325 34.2173H244.206L240.373 46ZM240.157 39.9968H248.33V42.5174H240.157V39.9968ZM243.162 29.2507L240.888 25.8576H243.818L245.407 29.2507H243.162ZM266.224 30.7273V46H263.435L256.79 36.3874H256.679V46H253.449V30.7273H256.283L262.876 40.3324H263.01V30.7273H266.224ZM268.892 46V30.7273H272.121V37.0288H278.676V30.7273H281.898V46H278.676V39.6911H272.121V46H268.892ZM289.42 46V30.7273H295.446C296.604 30.7273 297.591 30.9485 298.406 31.391C299.222 31.8285 299.843 32.4375 300.271 33.218C300.703 33.9936 300.919 34.8885 300.919 35.9027C300.919 36.9169 300.701 37.8118 300.263 38.5874C299.826 39.3629 299.192 39.967 298.362 40.3995C297.536 40.832 296.537 41.0483 295.364 41.0483H291.523V38.4606H294.842C295.463 38.4606 295.975 38.3537 296.378 38.1399C296.786 37.9212 297.089 37.6204 297.288 37.2376C297.492 36.8498 297.593 36.4048 297.593 35.9027C297.593 35.3956 297.492 34.9531 297.288 34.5753C297.089 34.1925 296.786 33.8967 296.378 33.6879C295.97 33.4741 295.453 33.3672 294.827 33.3672H292.649V46H289.42ZM303.017 46V30.7273H306.246V37.0288H312.801V30.7273H316.023V46H312.801V39.6911H306.246V46H303.017ZM332.72 38.3636C332.72 40.0291 332.404 41.446 331.773 42.6143C331.146 43.7827 330.291 44.6751 329.207 45.2915C328.128 45.9031 326.915 46.2088 325.568 46.2088C324.211 46.2088 322.993 45.9006 321.914 45.2841C320.835 44.6676 319.982 43.7752 319.356 42.6069C318.73 41.4386 318.416 40.0241 318.416 38.3636C318.416 36.6982 318.73 35.2812 319.356 34.1129C319.982 32.9446 320.835 32.0547 321.914 31.4432C322.993 30.8267 324.211 30.5185 325.568 30.5185C326.915 30.5185 328.128 30.8267 329.207 31.4432C330.291 32.0547 331.146 32.9446 331.773 34.1129C332.404 35.2812 332.72 36.6982 332.72 38.3636ZM329.446 38.3636C329.446 37.2848 329.284 36.375 328.961 35.6342C328.643 34.8935 328.193 34.3317 327.611 33.9489C327.03 33.5661 326.349 33.3746 325.568 33.3746C324.787 33.3746 324.106 33.5661 323.525 33.9489C322.943 34.3317 322.491 34.8935 322.167 35.6342C321.849 36.375 321.69 37.2848 321.69 38.3636C321.69 39.4425 321.849 40.3523 322.167 41.093C322.491 41.8338 322.943 42.3956 323.525 42.7784C324.106 43.1612 324.787 43.3526 325.568 43.3526C326.349 43.3526 327.03 43.1612 327.611 42.7784C328.193 42.3956 328.643 41.8338 328.961 41.093C329.284 40.3523 329.446 39.4425 329.446 38.3636ZM321.683 29.4744L324.688 27.1552H326.403L329.423 29.4744H327.134L325.561 28.2216L323.965 29.4744H321.683ZM328.64 28.1619L330.385 25.3654H332.846L330.438 28.1619H328.64ZM339.972 46V30.7273H343.201V37.0288H349.756V30.7273H352.978V46H349.756V39.6911H343.201V46H339.972ZM369.675 38.3636C369.675 40.0291 369.359 41.446 368.728 42.6143C368.101 43.7827 367.246 44.6751 366.162 45.2915C365.083 45.9031 363.87 46.2088 362.523 46.2088C361.166 46.2088 359.948 45.9006 358.869 45.2841C357.79 44.6676 356.938 43.7752 356.311 42.6069C355.685 41.4386 355.371 40.0241 355.371 38.3636C355.371 36.6982 355.685 35.2812 356.311 34.1129C356.938 32.9446 357.79 32.0547 358.869 31.4432C359.948 30.8267 361.166 30.5185 362.523 30.5185C363.87 30.5185 365.083 30.8267 366.162 31.4432C367.246 32.0547 368.101 32.9446 368.728 34.1129C369.359 35.2812 369.675 36.6982 369.675 38.3636ZM366.401 38.3636C366.401 37.2848 366.239 36.375 365.916 35.6342C365.598 34.8935 365.148 34.3317 364.566 33.9489C363.985 33.5661 363.304 33.3746 362.523 33.3746C361.743 33.3746 361.061 33.5661 360.48 33.9489C359.898 34.3317 359.446 34.8935 359.123 35.6342C358.804 36.375 358.645 37.2848 358.645 38.3636C358.645 39.4425 358.804 40.3523 359.123 41.093C359.446 41.8338 359.898 42.3956 360.48 42.7784C361.061 43.1612 361.743 43.3526 362.523 43.3526C363.304 43.3526 363.985 43.1612 364.566 42.7784C365.148 42.3956 365.598 41.8338 365.916 41.093C366.239 40.3523 366.401 39.4425 366.401 38.3636ZM363.358 27.1999L366.386 29.5192H364.097L362.516 28.2663L360.927 29.5192H358.653L361.651 27.1999H363.358ZM357.676 25.4176L359.428 28.2067H357.653L355.237 25.4176H357.676ZM390.403 36.0742H387.136C387.077 35.6516 386.955 35.2763 386.771 34.9482C386.587 34.6151 386.351 34.3317 386.062 34.098C385.774 33.8643 385.441 33.6854 385.063 33.5611C384.69 33.4368 384.285 33.3746 383.847 33.3746C383.057 33.3746 382.368 33.571 381.782 33.9638C381.195 34.3516 380.74 34.9183 380.417 35.6641C380.094 36.4048 379.932 37.3047 379.932 38.3636C379.932 39.4524 380.094 40.3672 380.417 41.108C380.745 41.8487 381.203 42.408 381.789 42.7859C382.376 43.1637 383.055 43.3526 383.825 43.3526C384.258 43.3526 384.658 43.2955 385.026 43.1811C385.399 43.0668 385.729 42.9002 386.018 42.6815C386.306 42.4577 386.545 42.1868 386.733 41.8686C386.927 41.5504 387.062 41.1875 387.136 40.7798L390.403 40.7947C390.318 41.4957 390.107 42.1719 389.769 42.8232C389.436 43.4695 388.986 44.0487 388.419 44.5607C387.857 45.0678 387.186 45.4705 386.405 45.7688C385.63 46.0621 384.752 46.2088 383.773 46.2088C382.411 46.2088 381.193 45.9006 380.119 45.2841C379.05 44.6676 378.205 43.7752 377.583 42.6069C376.967 41.4386 376.659 40.0241 376.659 38.3636C376.659 36.6982 376.972 35.2812 377.598 34.1129C378.225 32.9446 379.075 32.0547 380.149 31.4432C381.222 30.8267 382.431 30.5185 383.773 30.5185C384.658 30.5185 385.478 30.6428 386.234 30.8913C386.994 31.1399 387.668 31.5028 388.255 31.9801C388.841 32.4524 389.319 33.0316 389.687 33.7177C390.059 34.4038 390.298 35.1893 390.403 36.0742ZM392.718 46V30.7273H395.947V37.0288H402.502V30.7273H405.724V46H402.502V39.6911H395.947V46H392.718ZM411.615 30.7273V46H408.386V30.7273H411.615ZM408.871 29.2507L410.452 25.8576H413.39L411.115 29.2507H408.871ZM419.132 30.7273H423.114L427.32 40.9886H427.499L431.705 30.7273H435.688V46H432.555V36.0593H432.429L428.476 45.9254H426.343L422.391 36.022H422.264V46H419.132V30.7273ZM441.577 30.7273V46H438.348V30.7273H441.577ZM457.008 30.7273V46H454.219L447.575 36.3874H447.463V46H444.234V30.7273H447.067L453.66 40.3324H453.794V30.7273H457.008ZM459.676 46V30.7273H462.905V37.0288H469.46V30.7273H472.682V46H469.46V39.6911H462.905V46H459.676Z" fill="black"/>
</svg>
