<svg width="122" height="122" viewBox="0 0 122 122" fill="none" xmlns="http://www.w3.org/2000/svg">
<path d="M61.0001 10.1667C32.9401 10.1667 10.1667 32.94 10.1667 61C10.1667 89.06 32.9401 111.833 61.0001 111.833C89.0601 111.833 111.833 89.06 111.833 61C111.833 32.94 89.0601 10.1667 61.0001 10.1667ZM61.0001 30.5C70.8109 30.5 78.7917 38.4808 78.7917 48.2917C78.7917 58.1025 70.8109 66.0833 61.0001 66.0833C51.1893 66.0833 43.2084 58.1025 43.2084 48.2917C43.2084 38.4808 51.1893 30.5 61.0001 30.5ZM61.0001 101.667C50.6809 101.667 38.4809 97.4983 29.7884 87.0267C38.6924 80.0407 49.6827 76.2439 61.0001 76.2439C72.3175 76.2439 83.3078 80.0407 92.2117 87.0267C83.5192 97.4983 71.3192 101.667 61.0001 101.667Z" fill="#999999"/>
</svg>
