<svg width="18" height="18" viewBox="0 0 18 18" fill="none" xmlns="http://www.w3.org/2000/svg">
<path d="M9 18C7.346 18 6 16.654 6 15L6.053 11.947L3.018 12C1.346 12 0 10.654 0 9C0 7.346 1.346 6 3 6L6.053 5.946L6 3.018C6 1.346 7.346 0 9 0C10.654 0 12 1.346 12 3L12.055 5.946L15.018 6C16.654 6 18 7.346 18 9C18 10.654 16.654 12 15 12L12.055 11.947L12 15.018C12 16.654 10.654 18 9 18ZM8 10V15.018C8 15.551 8.449 16 9 16C9.551 16 10 15.551 10 15V10H15.018C15.551 10 16 9.551 16 9C16 8.449 15.551 8 15 8H10V3C10 2.431 9.551 2 9 2C8.449 2 8 2.449 8 3V8H3C2.431 8 2 8.449 2 9C2 9.551 2.449 10 3 10H8Z" fill="#00A3FF"/>
</svg>
